<svg xmlns="http://www.w3.org/2000/svg" viewBox="0 0 170.93 87.19"><defs><style>.cls-1,.cls-2,.cls-3{fill:none;stroke:#cfcece;stroke-miterlimit:10;}.cls-1{stroke-width:6px;}.cls-2,.cls-3{stroke-width:4px;}.cls-3{stroke-linecap:round;}</style></defs><title>Fichier 36</title><g id="Calque_2" data-name="Calque 2"><g id="Calque_1-2" data-name="Calque 1"><path class="cls-1" d="M146.85,75.06H24.08c-4.57,0-9-3.28-9.81-7.37L3.21,13.3C2.07,7.7,5.65,3,11.18,3H159.75c5.54,0,9.11,4.7,8,10.3L156.67,67.69C155.83,71.78,151.43,75.06,146.85,75.06Z"/><line class="cls-2" x1="18.24" y1="3" x2="29.92" y2="75.06"/><line class="cls-2" x1="34.8" y1="3" x2="43.6" y2="75.06"/><line class="cls-2" x1="51.36" y1="3" x2="57.28" y2="75.06"/><line class="cls-2" x1="67.91" y1="3" x2="70.96" y2="75.06"/><line class="cls-2" x1="84.47" y1="3" x2="84.64" y2="75.06"/><line class="cls-2" x1="101.02" y1="3" x2="98.32" y2="75.06"/><line class="cls-2" x1="117.58" y1="3" x2="112" y2="75.06"/><line class="cls-2" x1="134.13" y1="3" x2="125.68" y2="75.06"/><line class="cls-2" x1="150.69" y1="3" x2="139.36" y2="75.06"/><line class="cls-3" x1="29.92" y1="75.06" x2="20.05" y2="85.19"/><line class="cls-3" x1="33.02" y1="75.67" x2="38.33" y2="79.6"/><line class="cls-3" x1="139.79" y1="75.06" x2="149.69" y2="85.19"/><line class="cls-3" x1="136.69" y1="75.67" x2="131.39" y2="79.6"/></g></g></svg>