<svg xmlns="http://www.w3.org/2000/svg" viewBox="0 0 83.95 73.46"><defs><style>.cls-1{fill:#f7aa4a;}</style></defs><title>Fichier 32</title><g id="Calque_2" data-name="Calque 2"><g id="Calque_1-2" data-name="Calque 1"><path class="cls-1" d="M0,15H6.88l15-15H9.62L0,9.62Z"/><path class="cls-1" d="M44.1,15H56.35l15-15H59.09Z"/><path class="cls-1" d="M84,8.12,77.08,15H84Z"/><path class="cls-1" d="M84,0H75.58l-15,15H72.84L84,3.88Z"/><path class="cls-1" d="M0,5.38,5.38,0H0Z"/><path class="cls-1" d="M11.11,15H23.37l15-15H26.11Z"/><path class="cls-1" d="M63.58,48H20.37l-1.85,6H65.43Z"/><path class="cls-1" d="M83.42,73.46,66.35,18H57.5L74.57,73.46Z"/><path class="cls-1" d="M26.45,18H17.6L.53,73.46H9.39Z"/><path class="cls-1" d="M27.61,15H39.86l15-15H42.6Z"/></g></g></svg>