<svg xmlns="http://www.w3.org/2000/svg" viewBox="0 0 190.5 626.97"><defs><style>.cls-1{fill:#929292;}.cls-2{fill:#575656;}.cls-3{fill:#515151;}.cls-4{fill:#222323;}.cls-5{fill:#137676;}.cls-6{fill:#d7d7d7;}.cls-7{fill:#3a3a3a;}.cls-8{fill:#7f7f80;}</style></defs><title>Fichier 25</title><g id="Calque_2" data-name="Calque 2"><g id="Calque_1-2" data-name="Calque 1"><path class="cls-1" d="M20.84,126a10.06,10.06,0,0,1-3-.47A11.59,11.59,0,0,1,14.64,124c-5.06-3.52-8.56-11.22-8.56-20.15s3.5-16.63,8.56-20.15a11.59,11.59,0,0,1,3.16-1.59,10.06,10.06,0,0,1,3-.47c8.16,0,14.76,9.94,14.76,22.21S29,126,20.84,126Z"/><path class="cls-2" d="M20.84,126H14.75A10.76,10.76,0,0,1,8.55,124C3.5,120.46,0,112.76,0,103.83S3.5,87.2,8.55,83.68a10.76,10.76,0,0,1,6.2-2.06h6.09a10.06,10.06,0,0,0-3,.47,11.59,11.59,0,0,0-3.16,1.59C9.58,87.2,6.08,94.9,6.08,103.83s3.5,16.63,8.56,20.15a11.59,11.59,0,0,0,3.16,1.59A10.06,10.06,0,0,0,20.84,126Z"/><path class="cls-1" d="M20.84,538.12a10.06,10.06,0,0,1-3-.47,11.59,11.59,0,0,1-3.16-1.59c-5.06-3.52-8.56-11.22-8.56-20.15s3.5-16.63,8.56-20.15a11.59,11.59,0,0,1,3.16-1.59,10.06,10.06,0,0,1,3-.47c8.16,0,14.76,9.94,14.76,22.21S29,538.12,20.84,538.12Z"/><path class="cls-2" d="M20.84,538.12H14.75a10.76,10.76,0,0,1-6.2-2.06C3.5,532.54,0,524.84,0,515.91s3.5-16.63,8.55-20.15a10.76,10.76,0,0,1,6.2-2.06h6.09a10.06,10.06,0,0,0-3,.47,11.59,11.59,0,0,0-3.16,1.59C9.58,499.28,6.08,507,6.08,515.91s3.5,16.63,8.56,20.15a11.59,11.59,0,0,0,3.16,1.59A10.06,10.06,0,0,0,20.84,538.12Z"/><polygon class="cls-3" points="183.69 20.36 186.93 39.25 186.93 602.48 177.22 609.12 148.63 613.21 97.17 618.82 97.17 6.06 175.18 16.27 183.69 20.36"/><path class="cls-4" d="M169,606.37,78.2,618.82V8.1L168,20.42s15.73-1.74,15.73,25.5V595.59S181.74,604.61,169,606.37Z"/><path class="cls-4" d="M21.42,605.27V20.9a3.57,3.57,0,0,1,2.48-3.4L77.35.27a.65.65,0,0,1,.85.62V626.08a.65.65,0,0,1-.85.62l-52.69-17A4.66,4.66,0,0,1,21.42,605.27Z"/><path class="cls-5" d="M175.37,613.28,78.2,627v-8.15L169,606.37c6.06-.83,9.68-3.3,11.82-5.66a11.42,11.42,0,0,0,2.92-7.7V45.92c0-27.24-15.73-25.5-15.73-25.5L78.2,8.1V0l97.17,13.69c8.38,1.18,15.13,8.85,15.13,17.15V596.13C190.5,604.43,183.75,612.1,175.37,613.28Z"/><polygon class="cls-6" points="97.17 2.67 97.17 624.3 78.2 626.97 78.2 0 97.17 2.67"/><path class="cls-1" d="M72.93,126a10.06,10.06,0,0,1-3-.47A11.59,11.59,0,0,1,66.73,124c-5.06-3.52-8.56-11.22-8.56-20.15s3.5-16.63,8.56-20.15a11.59,11.59,0,0,1,3.16-1.59,10.06,10.06,0,0,1,3-.47c8.16,0,14.76,9.94,14.76,22.21S81.09,126,72.93,126Z"/><path class="cls-2" d="M72.93,126H66.84a10.76,10.76,0,0,1-6.2-2.06c-5-3.52-8.55-11.22-8.55-20.15s3.5-16.63,8.55-20.15a10.76,10.76,0,0,1,6.2-2.06h6.09a10.06,10.06,0,0,0-3,.47,11.59,11.59,0,0,0-3.16,1.59c-5.06,3.52-8.56,11.22-8.56,20.15s3.5,16.63,8.56,20.15a11.59,11.59,0,0,0,3.16,1.59A10.06,10.06,0,0,0,72.93,126Z"/><path class="cls-1" d="M72.93,538.12a10.06,10.06,0,0,1-3-.47,11.59,11.59,0,0,1-3.16-1.59c-5.06-3.52-8.56-11.22-8.56-20.15s3.5-16.63,8.56-20.15a11.59,11.59,0,0,1,3.16-1.59,10.06,10.06,0,0,1,3-.47c8.16,0,14.76,9.94,14.76,22.21S81.09,538.12,72.93,538.12Z"/><path class="cls-7" d="M72.93,528.68a5.71,5.71,0,0,1-1.75-.27,6.75,6.75,0,0,1-1.82-.91c-2.91-2-4.92-6.45-4.92-11.59s2-9.56,4.92-11.58a7.09,7.09,0,0,1,1.82-.92,6,6,0,0,1,1.75-.27c4.69,0,8.48,5.72,8.48,12.77S77.62,528.68,72.93,528.68Z"/><path class="cls-7" d="M72.93,116.6a5.71,5.71,0,0,1-1.75-.27,6.5,6.5,0,0,1-1.82-.92c-2.91-2-4.92-6.45-4.92-11.58s2-9.56,4.92-11.59a6.75,6.75,0,0,1,1.82-.91,5.71,5.71,0,0,1,1.75-.27c4.69,0,8.48,5.71,8.48,12.77S77.62,116.6,72.93,116.6Z"/><path class="cls-2" d="M72.93,538.12H66.84a10.76,10.76,0,0,1-6.2-2.06c-5-3.52-8.55-11.22-8.55-20.15s3.5-16.63,8.55-20.15a10.76,10.76,0,0,1,6.2-2.06h6.09a10.06,10.06,0,0,0-3,.47,11.59,11.59,0,0,0-3.16,1.59c-5.06,3.52-8.56,11.22-8.56,20.15s3.5,16.63,8.56,20.15a11.59,11.59,0,0,0,3.16,1.59A10.06,10.06,0,0,0,72.93,538.12Z"/><path class="cls-4" d="M151.44,12.87V10c0-1.46,1.51-2.52,3.26-2.39l13.42,1a1.82,1.82,0,0,1,1.61,1.87v1.93a1.84,1.84,0,0,1-1.61,1.88l-13.42,1C153,15.39,151.44,14.32,151.44,12.87Z"/><path class="cls-8" d="M111.9,203.56V78.88a3,3,0,0,1,3.36-3l54.29,6.44a3,3,0,0,1,2.64,3V210a3,3,0,0,1-3.35,3l-54.29-6.44A3,3,0,0,1,111.9,203.56Z"/><path class="cls-8" d="M111.9,365.45V491.07a3,3,0,0,0,3.4,3l54.3-7.33a3,3,0,0,0,2.59-3V359a3,3,0,0,0-3.35-3l-54.29,6.44A3,3,0,0,0,111.9,365.45Z"/><path class="cls-8" d="M111.9,504v99a3,3,0,0,0,3.43,2.93l44.4-6.37a14.44,14.44,0,0,0,12.47-14.23V497.08a3,3,0,0,0-3.39-2.94L114.52,501A3,3,0,0,0,111.9,504Z"/><path class="cls-8" d="M111.9,350.31V220.44a3,3,0,0,1,3.31-3L169.5,223a3,3,0,0,1,2.69,3V344.79a3,3,0,0,1-2.69,3l-54.29,5.52A3,3,0,0,1,111.9,350.31Z"/><path class="cls-8" d="M111.9,63.2V26.9a3,3,0,0,1,3.4-3l47.19,6.36a11.19,11.19,0,0,1,9.7,11.1V70.52a3,3,0,0,1-3.4,3L114.5,66.17A3,3,0,0,1,111.9,63.2Z"/><path class="cls-7" d="M19.67,503.41a7.09,7.09,0,0,0-1.82.92c-2.91,2-4.92,6.45-4.92,11.58s2,9.57,4.92,11.59a6.75,6.75,0,0,0,1.82.91,5.71,5.71,0,0,0,1.75.27V503.14A6,6,0,0,0,19.67,503.41Z"/><path class="cls-7" d="M19.67,91.33a6.75,6.75,0,0,0-1.82.91c-2.91,2-4.92,6.45-4.92,11.59s2,9.56,4.92,11.58a6.5,6.5,0,0,0,1.82.92,5.71,5.71,0,0,0,1.75.27V91.06A5.71,5.71,0,0,0,19.67,91.33Z"/></g></g></svg>