<svg id="Calque_1" data-name="Calque 1" xmlns="http://www.w3.org/2000/svg" viewBox="0 0 206.86 611.7"><defs><style>.cls-1{fill:#137676;}.cls-2{fill:#d7d7d7;}.cls-3{fill:#9e9e9e;}.cls-4{fill:#e2e2e2;}.cls-5{fill:#6d6d6d;stroke:#000;stroke-miterlimit:10;}.cls-6{fill:#434344;}</style></defs><title>bus-aerien</title><path class="cls-1" d="M329.57,621.94,316.05,744.5l-.17-.11H136.41l-13.5-122.45c-1-8.47,5-16,12.61-16H317c6.79,0,12.23,5.94,12.69,13.22A16.84,16.84,0,0,1,329.57,621.94Z" transform="translate(-122.81 -151.07)"/><path class="cls-2" d="M328.67,589c0,9.27-6.74,16.94-15.16,16.94H139c-8.76,0-15.68-8.28-15.13-18l24.08-421c.5-8.93,7.13-15.87,15.12-15.87h126.4c8,0,14.62,6.94,15.13,15.87l24.07,421Z" transform="translate(-122.81 -151.07)"/><path class="cls-3" d="M20.19,153.09H186.67a3.92,3.92,0,0,1,3.92,3.92v12.77a.64.64,0,0,1-.64.64h-173a.64.64,0,0,1-.64-.64V157A3.92,3.92,0,0,1,20.19,153.09Z"/><path class="cls-4" d="M313.41,304.16H139.08l4-83.42c.29-5.83,4.59-10.39,9.81-10.39H299.55c5.21,0,9.52,4.56,9.8,10.39Z" transform="translate(-122.81 -151.07)"/><path class="cls-5" d="M301.47,687.61H151a3.14,3.14,0,0,1-3-2.82l-6.61-45c-1.26-8.56,4.08-16.06,11.52-16.06H299.52c7.45,0,12.78,7.5,11.53,16.06l-6.62,45A3.13,3.13,0,0,1,301.47,687.61Z" transform="translate(-122.81 -151.07)"/><path class="cls-3" d="M316.06,744.5l-.65,5.8c-.77,7.13-6.2,12.48-12.62,12.48H149.68c-6.42,0-11.82-5.35-12.6-12.48l-.66-5.91H315.89Z" transform="translate(-122.81 -151.07)"/><path class="cls-6" d="M312.6,210.35h-1.23A2.43,2.43,0,0,1,309,208.2l-1.25-12.52c-.27-2.71,1.16-5.18,3.23-5.18H313c2.07,0,3.5,2.47,3.23,5.18L315,208.2A2.43,2.43,0,0,1,312.6,210.35Z" transform="translate(-122.81 -151.07)"/><path class="cls-6" d="M141.76,210.35h-1.22a2.43,2.43,0,0,1-2.41-2.15l-1.25-12.52c-.27-2.71,1.16-5.18,3.23-5.18h2.09c2.07,0,3.5,2.47,3.23,5.18l-1.25,12.52A2.44,2.44,0,0,1,141.76,210.35Z" transform="translate(-122.81 -151.07)"/><path class="cls-2" d="M329.67,619.21h0c-.46-7.28-5.9-13.22-12.69-13.22h-3.44c8.42,0,15.16-7.67,15.16-16.94Z" transform="translate(-122.81 -151.07)"/><path class="cls-2" d="M122.81,619.21h0c.45-7.28,5.89-13.22,12.68-13.22H139c-8.42,0-15.16-7.67-15.16-16.94Z" transform="translate(-122.81 -151.07)"/></svg>