<svg xmlns="http://www.w3.org/2000/svg" viewBox="0 0 304.51 102.54"><defs><style>.cls-1{fill:#fff;}.cls-2{fill:#3a3a3a;}.cls-3{fill:#a5a4a4;}.cls-4{fill:#504f4f;}.cls-5{fill:#ed6d6e;}.cls-6{fill:#cd5454;}</style></defs><title>camionhorizontale</title><g id="Calque_2" data-name="Calque 2"><g id="Calque_1-2" data-name="Calque 1"><path class="cls-1" d="M295.9,3.25H74.65a2.58,2.58,0,0,0-2.56,2.21l-6,40.64A1.64,1.64,0,0,0,67.75,48H303.39a1.12,1.12,0,0,0,1.11-1.28l-6-41.23A2.58,2.58,0,0,0,295.9,3.25Z"/><path class="cls-2" d="M121.9,89v3.57a3,3,0,0,0-.62-1.78c-1.43-2-5.24-3.45-9.72-3.45s-8.3,1.44-9.74,3.45a3.05,3.05,0,0,0-.62,1.78V89c0-2.89,4.63-5.23,10.36-5.23S121.9,86.08,121.9,89Z"/><path class="cls-2" d="M121.28,90.76a6.78,6.78,0,0,1-2.67,2h0a18.33,18.33,0,0,1-14.1,0h0a6.85,6.85,0,0,1-2.67-2c1.44-2,5.25-3.45,9.74-3.45S119.85,88.75,121.28,90.76Z"/><path class="cls-3" d="M121.9,92.54c0,2.89-4.63,5.23-10.34,5.23s-10.36-2.34-10.36-5.23a3.05,3.05,0,0,1,.62-1.78c1.44-2,5.25-3.45,9.74-3.45s8.29,1.44,9.72,3.45A3,3,0,0,1,121.9,92.54Z"/><ellipse class="cls-2" cx="111.55" cy="92.54" rx="7.07" ry="3.57"/><path class="cls-2" d="M50,93.29V97a3.21,3.21,0,0,0-.65-1.87c-1.51-2.12-5.52-3.63-10.24-3.63s-8.73,1.51-10.24,3.63A3.21,3.21,0,0,0,28.17,97V93.29c0-3.05,4.87-5.51,10.89-5.51S50,90.24,50,93.29Z"/><path class="cls-2" d="M49.3,95.17a7.07,7.07,0,0,1-2.81,2.13h0a17.71,17.71,0,0,1-7.42,1.49,17.67,17.67,0,0,1-7.42-1.49h0a7.07,7.07,0,0,1-2.81-2.13c1.51-2.12,5.52-3.63,10.24-3.63S47.79,93.05,49.3,95.17Z"/><path class="cls-3" d="M50,97c0,3-4.87,5.5-10.89,5.5S28.17,100.08,28.17,97a3.21,3.21,0,0,1,.65-1.87c1.51-2.12,5.52-3.63,10.24-3.63s8.73,1.51,10.24,3.63A3.21,3.21,0,0,1,50,97Z"/><ellipse class="cls-2" cx="39.06" cy="97.05" rx="7.44" ry="3.76"/><path class="cls-2" d="M263.74,89v3.57a3,3,0,0,0-.61-1.78c-1.44-2-5.25-3.45-9.73-3.45s-8.3,1.44-9.74,3.45a3,3,0,0,0-.61,1.78V89c0-2.89,4.63-5.23,10.35-5.23S263.74,86.08,263.74,89Z"/><path class="cls-2" d="M263.13,90.76a6.82,6.82,0,0,1-2.68,2h0a18.36,18.36,0,0,1-14.11,0h0a6.82,6.82,0,0,1-2.68-2c1.44-2,5.25-3.45,9.74-3.45S261.69,88.75,263.13,90.76Z"/><path class="cls-3" d="M263.74,92.54c0,2.89-4.63,5.23-10.34,5.23s-10.35-2.34-10.35-5.23a3,3,0,0,1,.61-1.78c1.44-2,5.25-3.45,9.74-3.45s8.29,1.44,9.73,3.45A3,3,0,0,1,263.74,92.54Z"/><ellipse class="cls-2" cx="253.39" cy="92.54" rx="7.07" ry="3.57"/><path class="cls-3" d="M66.25,49.93l7.39,37A2.59,2.59,0,0,0,76.18,89h22.2a2.49,2.49,0,0,0,2-.93c1.73-2.26,6.08-3.87,11.19-3.87s9.44,1.61,11.18,3.87a2.46,2.46,0,0,0,2,.93H240.46a2.49,2.49,0,0,0,2-.93c1.73-2.26,6.08-3.87,11.18-3.87s9.45,1.61,11.18,3.87a2.49,2.49,0,0,0,2,.93h27.57A2.6,2.6,0,0,0,296.91,87l7.51-37.64a1.12,1.12,0,0,0-1.1-1.34H67.86A1.64,1.64,0,0,0,66.25,49.93Z"/><path class="cls-1" d="M67.15,0H15.25a2.72,2.72,0,0,0-2.7,2.33L6.3,45.69a.65.65,0,0,0,.65.74H62.61a1.14,1.14,0,0,0,1.13-1l6.1-42.35A2.72,2.72,0,0,0,67.15,0Z"/><path class="cls-3" d="M39.06,88.61c4.49,0,8.44,1.15,10.8,2.88a2.57,2.57,0,0,0,1.56.5H69.59a2.73,2.73,0,0,0,2.66-3.31l-9.1-41.36a1.12,1.12,0,0,0-1.1-.89H6.88a.64.64,0,0,0-.65.68l5,42.28A2.73,2.73,0,0,0,13.94,92H26.7a2.57,2.57,0,0,0,1.56-.5C30.62,89.76,34.57,88.61,39.06,88.61Z"/><rect class="cls-4" y="16.1" width="5.02" height="7.08" rx="2.38"/><path class="cls-5" d="M37.75,12.09H3.85a.47.47,0,0,0-.46.39L2.34,19.65a.29.29,0,0,0,.29.33H39.07a.21.21,0,0,0,.2-.22L38.2,12.48A.45.45,0,0,0,37.75,12.09Z"/><path class="cls-6" d="M39.06,20H2.65a.3.3,0,0,0-.29.35l1.31,6.53a.45.45,0,0,0,.45.36H37.48a.45.45,0,0,0,.45-.36l1.32-6.64A.2.2,0,0,0,39.06,20Z"/></g></g></svg>