<svg xmlns="http://www.w3.org/2000/svg" viewBox="0 0 304.51 102.54"><defs><style>.cls-1{fill:#fff;}.cls-2{fill:#3a3a3a;}.cls-3{fill:#a5a4a4;}.cls-4{fill:#504f4f;}.cls-5{fill:#ed6d6e;}.cls-6{fill:#cd5454;}</style></defs><title>Fichier 44</title><g id="Calque_2" data-name="Calque 2"><g id="Calque_1-2" data-name="Calque 1"><path class="cls-1" d="M8.61,3.25H229.86a2.59,2.59,0,0,1,2.57,2.21l5.95,40.64A1.63,1.63,0,0,1,236.76,48H1.12A1.12,1.12,0,0,1,0,46.69l6-41.23A2.59,2.59,0,0,1,8.61,3.25Z"/><path class="cls-2" d="M182.61,89v3.57a3.05,3.05,0,0,1,.62-1.78c1.43-2,5.25-3.45,9.72-3.45s8.3,1.44,9.74,3.45a3.05,3.05,0,0,1,.62,1.78V89c0-2.89-4.63-5.23-10.36-5.23S182.61,86.08,182.61,89Z"/><path class="cls-2" d="M183.23,90.76a6.78,6.78,0,0,0,2.67,2h0a18.33,18.33,0,0,0,14.1,0h0a6.85,6.85,0,0,0,2.67-2c-1.44-2-5.25-3.45-9.74-3.45S184.66,88.75,183.23,90.76Z"/><path class="cls-3" d="M182.61,92.54c0,2.89,4.63,5.23,10.34,5.23s10.36-2.34,10.36-5.23a3.05,3.05,0,0,0-.62-1.78c-1.44-2-5.25-3.45-9.74-3.45s-8.29,1.44-9.72,3.45A3.05,3.05,0,0,0,182.61,92.54Z"/><ellipse class="cls-2" cx="192.96" cy="92.54" rx="7.07" ry="3.57"/><path class="cls-2" d="M254.56,93.29V97a3.21,3.21,0,0,1,.65-1.87c1.51-2.12,5.53-3.63,10.24-3.63s8.73,1.51,10.24,3.63a3.21,3.21,0,0,1,.65,1.87V93.29c0-3.05-4.87-5.51-10.89-5.51S254.56,90.24,254.56,93.29Z"/><path class="cls-2" d="M255.21,95.17A7.07,7.07,0,0,0,258,97.3h0a19.22,19.22,0,0,0,14.84,0h0a7.07,7.07,0,0,0,2.81-2.13c-1.51-2.12-5.52-3.63-10.24-3.63S256.72,93.05,255.21,95.17Z"/><path class="cls-3" d="M254.56,97c0,3,4.88,5.5,10.89,5.5s10.89-2.46,10.89-5.5a3.21,3.21,0,0,0-.65-1.87c-1.51-2.12-5.52-3.63-10.24-3.63s-8.73,1.51-10.24,3.63A3.21,3.21,0,0,0,254.56,97Z"/><ellipse class="cls-2" cx="265.45" cy="97.05" rx="7.44" ry="3.76"/><path class="cls-2" d="M40.77,89v3.57a3,3,0,0,1,.62-1.78c1.43-2,5.24-3.45,9.72-3.45s8.3,1.44,9.74,3.45a3.05,3.05,0,0,1,.62,1.78V89c0-2.89-4.63-5.23-10.36-5.23S40.77,86.08,40.77,89Z"/><path class="cls-2" d="M41.39,90.76a6.78,6.78,0,0,0,2.67,2h0a16.82,16.82,0,0,0,7,1.41,16.92,16.92,0,0,0,7.06-1.41h0a6.85,6.85,0,0,0,2.67-2c-1.44-2-5.25-3.45-9.74-3.45S42.82,88.75,41.39,90.76Z"/><path class="cls-3" d="M40.77,92.54c0,2.89,4.63,5.23,10.34,5.23s10.36-2.34,10.36-5.23a3.05,3.05,0,0,0-.62-1.78c-1.44-2-5.25-3.45-9.74-3.45s-8.29,1.44-9.72,3.45A3,3,0,0,0,40.77,92.54Z"/><ellipse class="cls-2" cx="51.12" cy="92.54" rx="7.07" ry="3.57"/><path class="cls-3" d="M238.26,49.93l-7.39,37A2.58,2.58,0,0,1,228.33,89h-22.2a2.49,2.49,0,0,1-2-.93c-1.73-2.26-6.08-3.87-11.19-3.87s-9.44,1.61-11.18,3.87a2.46,2.46,0,0,1-2,.93H64.05a2.46,2.46,0,0,1-2-.93c-1.74-2.26-6.09-3.87-11.19-3.87S41.43,85.84,39.7,88.1a2.49,2.49,0,0,1-2,.93H10.14A2.58,2.58,0,0,1,7.61,87L.09,49.31A1.12,1.12,0,0,1,1.19,48H236.66A1.64,1.64,0,0,1,238.26,49.93Z"/><path class="cls-1" d="M237.37,0h51.89A2.72,2.72,0,0,1,292,2.33l6.25,43.36a.65.65,0,0,1-.64.74H241.9a1.12,1.12,0,0,1-1.12-1L234.67,3.11A2.72,2.72,0,0,1,237.37,0Z"/><path class="cls-3" d="M265.45,88.61c-4.49,0-8.44,1.15-10.8,2.88a2.57,2.57,0,0,1-1.56.5H234.92a2.73,2.73,0,0,1-2.66-3.31l9.1-41.36a1.13,1.13,0,0,1,1.11-.89h55.17a.66.66,0,0,1,.65.68l-5,42.28a2.73,2.73,0,0,1-2.72,2.6H277.81a2.57,2.57,0,0,1-1.56-.5C273.89,89.76,269.94,88.61,265.45,88.61Z"/><rect class="cls-4" x="299.49" y="16.1" width="5.02" height="7.08" rx="2.38" transform="translate(604 39.29) rotate(-180)"/><path class="cls-5" d="M266.76,12.09h33.91a.47.47,0,0,1,.45.39l1.05,7.17a.29.29,0,0,1-.29.33H265.44a.21.21,0,0,1-.2-.22l1.07-7.28A.45.45,0,0,1,266.76,12.09Z"/><path class="cls-6" d="M265.45,20h36.41a.3.3,0,0,1,.29.35l-1.31,6.53a.45.45,0,0,1-.44.36H267a.46.46,0,0,1-.45-.36l-1.32-6.64A.2.2,0,0,1,265.45,20Z"/></g></g></svg>