<svg xmlns="http://www.w3.org/2000/svg" viewBox="0 0 68.59 251.34"><defs><style>.cls-1{fill:#fff;}.cls-2{fill:#a5a4a4;}.cls-3{fill:#6abae1;}.cls-4{fill:#ed6d6e;}.cls-5{fill:#cd5454;}.cls-6{fill:#575656;}.cls-7{fill:#262626;}.cls-8{fill:#6e6e6d;}</style></defs><title>Fichier 43</title><g id="Calque_2" data-name="Calque 2"><g id="Calque_1-2" data-name="Calque 1"><path class="cls-1" d="M61.33,175.49H7.26a4.76,4.76,0,0,1-4.75-4.76L5.72,4.27A4.37,4.37,0,0,1,10.06,0H58.53a4.37,4.37,0,0,1,4.34,4.27l3.21,166.46A4.76,4.76,0,0,1,61.33,175.49Z"/><path class="cls-2" d="M65.61,251.34H3a1.12,1.12,0,0,1-1.11-1.07L0,203.12a1.12,1.12,0,0,1,1.09-1.2H67.5a1.12,1.12,0,0,1,1.09,1.2l-1.87,47.15A1.12,1.12,0,0,1,65.61,251.34Z"/><path class="cls-1" d="M67.5,201.92H1.09A1.1,1.1,0,0,1,0,200.76l1-26.42a1.16,1.16,0,0,1,1.14-1.1H66.41a1.16,1.16,0,0,1,1.14,1.1l1,26.42A1.1,1.1,0,0,1,67.5,201.92Z"/><path class="cls-1" d="M17.54,243.94c-.43,2.26-3.33,3.89-6.54,3.89s-6.12-1.63-6.55-3.89c-.49-2.6,2.41-5,6.55-5S18,241.34,17.54,243.94Z"/><path class="cls-1" d="M63.63,243.94c-.43,2.26-3.34,3.89-6.55,3.89s-6.11-1.63-6.54-3.89c-.49-2.6,2.41-5,6.54-5S64.12,241.34,63.63,243.94Z"/><path class="cls-3" d="M58.07,225.31H10.52a1.62,1.62,0,0,1-1.58-1.46L7.77,211.31a1.4,1.4,0,0,1,1.38-1.61H59.44a1.41,1.41,0,0,1,1.39,1.61l-1.18,12.54A1.62,1.62,0,0,1,58.07,225.31Z"/><path class="cls-4" d="M38.53,206.39H30.06a.75.75,0,0,1-.74-.75l.5-26.07a.69.69,0,0,1,.68-.67h7.59a.69.69,0,0,1,.68.67l.5,26.07A.75.75,0,0,1,38.53,206.39Z"/><path class="cls-5" d="M38.59,212.91H30a.15.15,0,0,1-.16-.13l-.52-6.23a.14.14,0,0,1,.15-.16h9.65a.14.14,0,0,1,.15.16l-.52,6.23A.15.15,0,0,1,38.59,212.91Z"/><path class="cls-6" d="M37.25,210c-.27.71-1.49,1.24-3,1.24s-2.69-.53-3-1.24c.26-.71,1.49-1.24,3-1.24S37,209.24,37.25,210Z"/><path class="cls-6" d="M37.3,210.24c0,.86-1.34,1.54-3,1.54s-3-.68-3-1.54a.88.88,0,0,1,.06-.29c.26-.71,1.49-1.24,3-1.24s2.69.53,3,1.24A.88.88,0,0,1,37.3,210.24Z"/><path class="cls-7" d="M36,210.24c0,.49-.77.89-1.72.89s-1.74-.4-1.74-.89a.53.53,0,0,1,0-.17c.14-.4.85-.71,1.7-.71s1.54.31,1.69.71A.51.51,0,0,1,36,210.24Z"/><path class="cls-8" d="M37.3,209.65v.59a.88.88,0,0,0,0-.29c-.26-.71-1.49-1.24-3-1.24s-2.7.53-3,1.24a.88.88,0,0,0-.06.29v-.59c0-.85,1.35-1.54,3-1.54S37.3,208.8,37.3,209.65Z"/></g></g></svg>