<svg xmlns="http://www.w3.org/2000/svg" viewBox="0 0 70.19 262.39"><defs><style>.cls-1{fill:#a5a4a4;}.cls-2{fill:#fff;}.cls-3{fill:#ed6d6e;}.cls-4{fill:#cd5454;}</style></defs><title>Fichier 45</title><g id="Calque_2" data-name="Calque 2"><g id="Calque_1-2" data-name="Calque 1"><path class="cls-1" d="M61.6,79h-53c-.5,0-1-.26-1-.58L0,47.65c-.12-.52.29-.94.94-.94H69.24c.64,0,1.06.42.93.94L62.65,78.41A1.07,1.07,0,0,1,61.6,79Z"/><path class="cls-2" d="M61.6,14.43h-53c-.5,0-1,.25-1,.57L0,45.76c-.12.52.29,1,.94,1H69.24c.64,0,1.06-.43.93-1L62.65,15C62.57,14.68,62.1,14.43,61.6,14.43Z"/><path class="cls-1" d="M3.47,234.14S2.22,217.81,6,224.9a71,71,0,0,1,5.17,11.8Z"/><path class="cls-1" d="M66.54,233.12s1.25-16.33-2.52-9.25a72.36,72.36,0,0,0-5.17,11.81Z"/><path class="cls-2" d="M62.08,238.33H8a4.75,4.75,0,0,1-4.75-4.75L6.47,67.12a4.36,4.36,0,0,1,4.34-4.27H59.28a4.37,4.37,0,0,1,4.34,4.27l3.21,166.46A4.75,4.75,0,0,1,62.08,238.33Z"/><path class="cls-1" d="M59,262.39H11.2a1,1,0,0,1-.94-.52L3.47,234.14c-.11-.47.27-.86.85-.86H65.88c.58,0,1,.39.84.86l-6.78,27.73A1,1,0,0,1,59,262.39Z"/><path class="cls-3" d="M39.33,27.49H30.86a.75.75,0,0,1-.74-.75L31.31.57A.59.59,0,0,1,31.9,0h6.39a.59.59,0,0,1,.59.57l1.19,26.17A.75.75,0,0,1,39.33,27.49Z"/><path class="cls-4" d="M39.39,34H30.8a.16.16,0,0,1-.16-.13l-.52-6.24a.14.14,0,0,1,.16-.15h9.64a.14.14,0,0,1,.15.15l-.52,6.24A.15.15,0,0,1,39.39,34Z"/></g></g></svg>