<svg  viewBox="-1 0 512 512.00002"  xmlns="http://www.w3.org/2000/svg"><path d="m316.703125 61.222656c0 28.019532-18.832031 51.652344-44.527344 58.910156-5.308593 1.5-10.898437 2.304688-16.683593 2.304688-33.808594 0-61.222657-27.40625-61.222657-61.214844s27.414063-61.222656 61.222657-61.222656c5.785156 0 11.375.804688 16.683593 2.304688 25.695313 7.269531 44.527344 30.898437 44.527344 58.917968zm0 0" fill="#ed9a00"/><path d="m316.703125 61.222656c0 28.019532-18.832031 51.652344-44.527344 58.910156-25.703125-7.257812-44.539062-30.890624-44.539062-58.910156 0-28.019531 18.835937-51.648437 44.539062-58.917968 25.695313 7.269531 44.527344 30.898437 44.527344 58.917968zm0 0" fill="#ffdf59"/><path d="m30.230469 329.332031c18.96875-152.375 112.609375-268.109375 225.257812-268.109375 112.640625 0 206.28125 115.734375 225.25 268.109375l-164.765625 95.886719h-200.21875" fill="#4f5263"/><path d="m115.742188 329.332031 53.058593 95.886719h-53.046875l-85.523437-95.886719c18.96875-152.375 112.613281-268.109375 225.257812-268.109375-69.886719 0-127.984375 115.734375-139.746093 268.109375zm0 0" fill="#33344a"/><path d="m510.980469 362.148438v114.082031c0 19.75-16.019531 35.769531-35.769531 35.769531h-439.441407c-19.761719 0-35.769531-16.019531-35.769531-35.769531v-114.082031c0-19.75 16.007812-35.769532 35.769531-35.769532h439.441407c19.75 0 35.769531 16.015625 35.769531 35.769532zm0 0" fill="#ed9a00"/><path d="m510.980469 362.148438v114.082031c0 19.75-16.019531 35.769531-35.769531 35.769531h-361.449219c-19.753907 0-35.769531-16.019531-35.769531-35.769531v-114.082031c0-19.75 16.015624-35.769532 35.769531-35.769532h361.449219c19.75 0 35.769531 16.015625 35.769531 35.769532zm0 0" fill="#ffdf59"/><path d="m276.179688 466.117188h-41.386719c-10.457031 0-18.933594-8.476563-18.933594-18.933594v-55.988282c0-10.457031 8.476563-18.933593 18.933594-18.933593h41.386719c10.457031 0 18.933593 8.476562 18.933593 18.933593v55.988282c0 10.457031-8.476562 18.933594-18.933593 18.933594zm0 0" fill="#ff694f"/></svg>