<svg xmlns="http://www.w3.org/2000/svg" viewBox="0 0 78.23 78.69"><defs><style>.cls-1{fill:#1d1d1b;}.cls-2{fill:#afafaf;}.cls-3,.cls-5{fill:#fff;}.cls-3{stroke:#1d1d1b;stroke-miterlimit:10;stroke-width:0.5px;}.cls-4{fill:#676766;}</style></defs><title>Fichier 28</title><g id="Calque_2" data-name="Calque 2"><g id="Calque_1-2" data-name="Calque 1"><path class="cls-1" d="M77.87,73.1a120.85,120.85,0,0,1-5.21-21.9,35.72,35.72,0,0,1,0-11.49,33.56,33.56,0,0,0,.49-5.7c0-18.78-15.59-34-34.82-34S3.53,15.23,3.53,34A34,34,0,0,0,25.92,65.78l-2.43,1.5S83.39,88.46,77.87,73.1Z"/><path class="cls-2" d="M7,30.4H47.28a0,0,0,0,1,0,0V40.46A37.83,37.83,0,0,1,9.46,78.29h0a6.93,6.93,0,0,1-6.93-6.93V34.84A4.44,4.44,0,0,1,7,30.4Z"/><path class="cls-3" d="M5.56,30.21H45.87a0,0,0,0,1,0,0V40.27A37.83,37.83,0,0,1,8,78.09H8a6.93,6.93,0,0,1-6.93-6.93V34.65a4.44,4.44,0,0,1,4.44-4.44Z"/><rect class="cls-4" x="0.15" y="28" width="44.46" height="4.43" rx="2.21"/><path d="M43.45,32.57H1.3A1.3,1.3,0,0,1,0,31.27V29.15a1.3,1.3,0,0,1,1.3-1.3H43.45a1.3,1.3,0,0,1,1.3,1.3v2.12A1.31,1.31,0,0,1,43.45,32.57ZM1.3,28.14a1,1,0,0,0-1,1v2.12a1,1,0,0,0,1,1H43.45a1,1,0,0,0,1-1V29.15a1,1,0,0,0-1-1Z"/><circle class="cls-5" cx="46.09" cy="31.33" r="6.56"/><path class="cls-1" d="M46.09,38.18A6.86,6.86,0,1,1,53,31.33,6.85,6.85,0,0,1,46.09,38.18Zm0-13.12a6.27,6.27,0,1,0,6.27,6.27A6.27,6.27,0,0,0,46.09,25.06Z"/></g></g></svg>