<svg xmlns="http://www.w3.org/2000/svg" viewBox="0 0 57.71 112.65"><defs><style>.cls-1{fill:#aa5517;}.cls-1,.cls-2,.cls-3,.cls-4,.cls-5{stroke:#1d1d1b;stroke-miterlimit:10;}.cls-1,.cls-2,.cls-4,.cls-5{stroke-width:0.5px;}.cls-2{fill:#c66716;}.cls-3{fill:#684716;stroke-width:0.25px;}.cls-4{fill:#c08526;}.cls-5{fill:#fff;}</style></defs><title>Fichier 29</title><g id="Calque_2" data-name="Calque 2"><g id="Calque_1-2" data-name="Calque 1"><path class="cls-1" d="M52,112.4H5.68c-3.53,0-5.91-3.07-5.35-6.73L3,88.47a6.39,6.39,0,0,1,6.22-5.18H48.5a6.39,6.39,0,0,1,6.22,5.18l2.66,17.2C58,109.33,55.56,112.4,52,112.4Z"/><path class="cls-2" d="M51.73,94.47l-5.24-30-.3-1.71L44.15,51l-.36-2-7.9-45.3h0c0-1.87-3.15-3.39-7-3.39s-7,1.52-7,3.39h0l-7.9,45.3-.35,2L11.52,62.72l-.3,1.71L6,94.47a5.52,5.52,0,0,0-.33,1.88c0,6.16,10.38,11.16,23.2,11.16s23.19-5,23.19-11.16A5.76,5.76,0,0,0,51.73,94.47Z"/><ellipse class="cls-3" cx="28.86" cy="3.64" rx="5.96" ry="2.87"/><path class="cls-4" d="M11.22,64.42a5,5,0,0,1,.3-1.7l-.3,1.71Z"/><path class="cls-5" d="M41,33.11c0,3.53-5.45,6.39-12.16,6.39S16.7,36.64,16.69,33.11l.21-1.18,1.41-8.09a5.39,5.39,0,0,0,2.84,4.32,14.37,14.37,0,0,0,7.71,2,14.36,14.36,0,0,0,7.7-2,5.39,5.39,0,0,0,2.84-4.32l1.41,8.09Z"/><path class="cls-5" d="M48,72.82c0,5.53-8.55,10-19.09,10s-19.09-4.49-19.1-10L10.09,71,12.3,58.26c0,2.63,1.71,5,4.46,6.79a22.6,22.6,0,0,0,12.1,3.19A22.59,22.59,0,0,0,41,65.05c2.75-1.78,4.44-4.16,4.46-6.79L47.63,71Z"/></g></g></svg>