<svg xmlns="http://www.w3.org/2000/svg" viewBox="0 0 92.93 85.41"><defs><style>.cls-1{fill:#474747;}.cls-2{fill:#7f3945;}.cls-3{fill:#ad6065;}.cls-4{fill:#d40005;}.cls-5{fill:#d8757d;}</style></defs><title>Fichier 1</title><g id="Calque_2" data-name="Calque 2"><g id="Calque_1-2" data-name="Calque 1"><rect class="cls-1" x="59.74" y="32.7" width="15.06" height="57.72" rx="2.26" transform="translate(-23.42 71.01) rotate(-48.41)"/><path class="cls-2" d="M18.41,29.29a14.19,14.19,0,0,0,4.95.63c6,0,10.9-3.24,10.9-7.24a6,6,0,0,0-2.45-4.57h0a4.71,4.71,0,0,0,1.67-3.45c0-3.28-4-5.94-8.95-5.94h-.22a10.17,10.17,0,0,0-7.18-2.6c-3.49,0-6.49,1.39-7.82,3.38C4,10.44,0,13.66,0,17.51A7,7,0,0,0,3.17,23a4,4,0,0,0-.06.7C3.11,27.71,8,31,14,31,14,31,17.26,30.81,18.41,29.29Z"/><path class="cls-3" d="M25,29.6a7.84,7.84,0,0,0,3.16.47c3.84,0,7-2.42,7-5.41a4.74,4.74,0,0,0-1.56-3.41h0a3.83,3.83,0,0,0,1.06-2.58c0-2.45-2.56-4.44-5.71-4.44h-.14a5.92,5.92,0,0,0-4.57-1.94,5.68,5.68,0,0,0-5,2.53c-3.41.69-5.93,3.1-5.93,6a5.46,5.46,0,0,0,2,4.11,4.55,4.55,0,0,0,0,.52c0,3,3.11,5.41,7,5.41C22.15,30.84,24.22,30.74,25,29.6Z"/><path class="cls-4" d="M35.87,17.3a7.84,7.84,0,0,0,3.16.47c3.83,0,6.95-2.42,6.95-5.41A4.74,4.74,0,0,0,44.42,9h0a3.83,3.83,0,0,0,1.06-2.58c0-2.45-2.56-4.44-5.71-4.44h-.14A5.94,5.94,0,0,0,35.06,0a5.68,5.68,0,0,0-5,2.53c-3.41.69-5.93,3.1-5.93,6a5.46,5.46,0,0,0,2,4.11,3,3,0,0,0,0,.52c0,3,3.11,5.41,7,5.41C33.07,18.54,35.14,18.44,35.87,17.3Z"/><path class="cls-5" d="M35.78,45.53a8.82,8.82,0,0,0,2.79.31c3.4,0,6.15-1.6,6.15-3.57A2.83,2.83,0,0,0,43.34,40h0a2.25,2.25,0,0,0,.95-1.7c0-1.62-2.27-2.93-5.06-2.93h-.12a6.22,6.22,0,0,0-4-1.28,5.69,5.69,0,0,0-4.42,1.67c-3,.46-5.25,2-5.25,3.94a3.36,3.36,0,0,0,1.79,2.71,2.16,2.16,0,0,0,0,.35c0,2,2.75,3.57,6.15,3.57C33.3,46.35,35.13,46.29,35.78,45.53Z"/><path class="cls-5" d="M37.2,29.6a7.87,7.87,0,0,0,3.16.47c3.84,0,7-2.42,7-5.41a4.74,4.74,0,0,0-1.56-3.41h0a3.78,3.78,0,0,0,1.06-2.58c0-2.45-2.55-4.44-5.7-4.44H41a6,6,0,0,0-4.58-1.94,5.68,5.68,0,0,0-5,2.53c-3.41.69-5.93,3.1-5.93,6a5.49,5.49,0,0,0,2,4.11,4.53,4.53,0,0,0,0,.52c0,3,3.11,5.41,6.94,5.41C34.4,30.84,36.47,30.74,37.2,29.6Z"/><path class="cls-4" d="M41.61,42.14a7.87,7.87,0,0,0,3.16.47c3.84,0,6.95-2.42,6.95-5.41a4.74,4.74,0,0,0-1.56-3.41h0a3.78,3.78,0,0,0,1.06-2.58c0-2.45-2.55-4.44-5.71-4.44h-.13a6,6,0,0,0-4.58-1.94,5.68,5.68,0,0,0-5,2.53c-3.41.69-5.93,3.1-5.93,6a5.49,5.49,0,0,0,2,4.11,4.53,4.53,0,0,0,0,.52c0,3,3.11,5.41,6.94,5.41C38.81,43.38,40.88,43.28,41.61,42.14Z"/></g></g></svg>