<svg xmlns="http://www.w3.org/2000/svg" viewBox="0 0 94.49 97.55"><defs><style>.cls-1{fill:#f3e600;}</style></defs><title>Fichier 30</title><g id="Calque_2" data-name="Calque 2"><g id="Calque_1-2" data-name="Calque 1"><path d="M19.38,0h7.86a2,2,0,0,0,.44.17,7.17,7.17,0,0,1,5.39,3.54c2,3.27,4,6.5,6,9.75,1.17,1.9,2.36,3.79,3.5,5.71,1.44,2.43,2.83,4.88,4.25,7.31a2.23,2.23,0,0,0,.28.34,5.68,5.68,0,0,0,.32-.48c1.05-1.84,2.06-3.7,3.15-5.52,1.53-2.53,3.12-5,4.67-7.54,2.07-3.34,4.11-6.69,6.19-10a5.9,5.9,0,0,1,3-2.48C65.32.46,66.22.25,67.1,0h8c.67,0,1.34.13,2,.13a8.94,8.94,0,0,1,3.74.75,6.44,6.44,0,0,1,2.57,9.85A21.59,21.59,0,0,0,79,22.55a19.5,19.5,0,0,0,.22,5.16A24.77,24.77,0,0,0,81.13,34,24.93,24.93,0,0,0,91.4,44.75a5.33,5.33,0,0,1,2.72,3.38c.11.41.24.81.37,1.22v8a4.15,4.15,0,0,0-.16.84q0,14.81,0,29.63a4.15,4.15,0,0,0,.16.84v1c-.12.59-.23,1.17-.37,1.75a7.83,7.83,0,0,1-2.35,4.32,8.09,8.09,0,0,1-5.58,1.85c-9.65,0-19.29,0-28.94,0-1.33,0-2.66,0-4-.15a6.92,6.92,0,0,1-5.85-3.91A3.56,3.56,0,0,0,47,93l-.4.51a16,16,0,0,1-1.87,2.36,7.6,7.6,0,0,1-5.23,1.66q-15.47,0-30.91,0a14.46,14.46,0,0,1-2.93-.33A6.67,6.67,0,0,1,.35,92,16.27,16.27,0,0,1,0,87.62c0-10.1,0-20.2,0-30.29,0-.32,0-.64,0-.95,0-2.33,0-4.65.07-7a3.06,3.06,0,0,1,0-.74,5.62,5.62,0,0,1,2.74-3.84A26.1,26.1,0,0,0,9.9,39a22.87,22.87,0,0,0,5.51-14.33A23.42,23.42,0,0,0,15,20.35a21.94,21.94,0,0,0-4.21-9.82A6.35,6.35,0,0,1,13,1.09a8.59,8.59,0,0,1,4.64-1C18.22.14,18.8,0,19.38,0ZM70.43,54.82H92.18c1,0,1,0,1-1,0-1.29,0-2.58,0-3.86a4.49,4.49,0,0,0-2.5-4.31,25.53,25.53,0,0,1-8.73-8A23.32,23.32,0,0,1,78.12,20,23.68,23.68,0,0,1,82.55,9.89,5,5,0,0,0,82.72,4,6,6,0,0,0,77.5,1.33c-3.37,0-6.73-.06-10.1,0a5.86,5.86,0,0,0-5.2,2.88Q55.84,14.53,49.46,24.84a11.12,11.12,0,0,0-1.75,5.89q0,11.55,0,23.1c0,1,0,1,1,1Zm-46.65,0H45.4c1,0,1,0,1-1,0-7.59,0-15.18,0-22.77a11.82,11.82,0,0,0-1.82-6.35C40.44,17.93,36.23,11.18,32.1,4.4a6.12,6.12,0,0,0-5.56-3.09c-1.76,0-3.52,0-5.28,0s-3.76-.05-5.62.15A5.33,5.33,0,0,0,11.81,10a23.33,23.33,0,0,1,4.7,15.6,23.18,23.18,0,0,1-2.22,8.79A25.8,25.8,0,0,1,3.5,45.81a3.94,3.94,0,0,0-2.21,3.68c0,1.47,0,2.94,0,4.41,0,.92,0,.92.94.92ZM70.45,71.13H48.62c-.86,0-.91.05-.91.93,0,1.08,0,2.17,0,3.25,0,.56.22.79.77.75a4.86,4.86,0,0,1,.54,0H91.84c.2,0,.41,0,.61,0,.52,0,.72-.21.71-.73,0-1.07,0-2.13,0-3.19s0-1-1-1ZM23.79,76.06H38.37c2.39,0,4.79,0,7.18,0,.6,0,.86-.19.84-.82,0-1,0-1.94,0-2.91,0-1.2,0-1.2-1.19-1.2H2.35c-.16,0-.32,0-.48,0-.49,0-.69.18-.68.67,0,1,0,2.08,0,3.12s0,1.14,1.12,1.14ZM92.51,92.47H48.25a17.66,17.66,0,0,0,.94,1.59,6.13,6.13,0,0,0,5.21,2.23q16,0,32,0a9.39,9.39,0,0,0,3-.54A4.91,4.91,0,0,0,92.51,92.47Zm-46.77,0H1.84a2,2,0,0,0,.07.33,4.44,4.44,0,0,0,.24.49c1.19,2.21,3.22,3,5.54,3q16.11.06,32.2,0a6.89,6.89,0,0,0,3.51-.88A5.11,5.11,0,0,0,45.74,92.48Z"/><path class="cls-1" d="M70.43,54.82H48.67c-1,0-1,0-1-1q0-11.55,0-23.1a11.12,11.12,0,0,1,1.75-5.89Q55.82,14.52,62.2,4.21a5.86,5.86,0,0,1,5.2-2.88c3.37-.06,6.73,0,10.1,0A6,6,0,0,1,82.72,4a5,5,0,0,1-.17,5.94A23.68,23.68,0,0,0,78.12,20,23.32,23.32,0,0,0,82,37.73a25.53,25.53,0,0,0,8.73,8A4.49,4.49,0,0,1,93.18,50c0,1.28,0,2.57,0,3.86,0,1,0,1-1,1Z"/><path class="cls-1" d="M23.78,54.82H2.24c-.94,0-.94,0-.94-.92,0-1.47,0-2.94,0-4.41A3.94,3.94,0,0,1,3.5,45.81,25.8,25.8,0,0,0,14.29,34.36a23.18,23.18,0,0,0,2.22-8.79A23.33,23.33,0,0,0,11.81,10a5.33,5.33,0,0,1,3.83-8.5c1.86-.2,3.74-.13,5.62-.15s3.52,0,5.28,0A6.12,6.12,0,0,1,32.1,4.4c4.13,6.78,8.34,13.53,12.5,20.29A11.82,11.82,0,0,1,46.42,31c0,7.59,0,15.18,0,22.77,0,1,0,1-1,1Z"/><path class="cls-1" d="M70.45,71.13H92.13c1,0,1,0,1,1s0,2.12,0,3.19c0,.52-.19.75-.71.73-.2,0-.41,0-.61,0H49a4.86,4.86,0,0,0-.54,0c-.55,0-.78-.19-.77-.75,0-1.08,0-2.17,0-3.25,0-.88,0-.93.91-.93H70.45Z"/><path class="cls-1" d="M23.79,76.06H2.31c-1.12,0-1.12,0-1.12-1.14s0-2.08,0-3.12c0-.49.19-.71.68-.67.16,0,.32,0,.48,0H45.19c1.19,0,1.19,0,1.19,1.2,0,1,0,1.94,0,2.91,0,.63-.24.83-.84.82-2.39,0-4.79,0-7.18,0Z"/><path class="cls-1" d="M92.51,92.47a4.91,4.91,0,0,1-3.1,3.26,9.39,9.39,0,0,1-3,.54q-16,.06-32,0a6.13,6.13,0,0,1-5.21-2.23,17.66,17.66,0,0,1-.94-1.59Z"/><path class="cls-1" d="M45.74,92.48a5.11,5.11,0,0,1-2.34,2.93,6.89,6.89,0,0,1-3.51.88q-16.09,0-32.2,0c-2.32,0-4.35-.77-5.54-3a4.44,4.44,0,0,1-.24-.49,2,2,0,0,1-.07-.33Z"/></g></g></svg>