<?xml version="1.0" encoding="iso-8859-1"?>
<!-- Generator: Adobe Illustrator 19.0.0, SVG Export Plug-In . SVG Version: 6.00 Build 0)  -->
<svg version="1.1" id="Layer_1" xmlns="http://www.w3.org/2000/svg" xmlns:xlink="http://www.w3.org/1999/xlink" x="0px" y="0px"
	 viewBox="0 0 512 512" style="enable-background:new 0 0 512 512;" xml:space="preserve">
<g>
	<path style="fill:#FFFFFF;" d="M205.198,411.404v6.955v46.611v6.955h40.242h21.192h40.238v-6.955v-46.611v-6.955h-40.238H245.44
		H205.198z M227.056,431.604v20.121c0,3.31-2.649,5.959-5.963,5.959c-3.31,0-6.043-2.649-6.043-5.959v-20.121
		c0-3.314,2.733-5.963,6.043-5.963C224.407,425.645,227.056,428.294,227.056,431.604z"/>
	<path style="fill:#FFFFFF;" d="M205.198,305.756v6.872v46.695v6.872h40.242h21.192h40.238v-6.872v-46.695v-6.872h-40.238H245.44
		L205.198,305.756L205.198,305.756z M227.056,325.961v20.037c0,3.314-2.649,6.047-5.963,6.047c-3.31,0-6.043-2.733-6.043-6.047
		v-20.037c0-3.31,2.733-6.043,6.043-6.043C224.407,319.918,227.056,322.651,227.056,325.961z"/>
</g>
<g>
	<path style="fill:#29A9E1;" d="M215.053,325.961v20.037c0,3.314,2.733,6.047,6.043,6.047c3.314,0,5.963-2.733,5.963-6.047v-20.037
		c0-3.31-2.649-6.043-5.963-6.043C217.786,319.918,215.053,322.651,215.053,325.961z"/>
	<path style="fill:#29A9E1;" d="M215.053,431.604v20.121c0,3.31,2.733,5.959,6.043,5.959c3.314,0,5.963-2.649,5.963-5.959v-20.121
		c0-3.314-2.649-5.963-5.963-5.963C217.786,425.645,215.053,428.294,215.053,431.604z"/>
	<rect x="306.886" y="418.351" style="fill:#29A9E1;" width="166.5" height="46.611"/>
	<rect x="38.618" y="418.351" style="fill:#29A9E1;" width="166.58" height="46.611"/>
	<rect x="38.618" y="312.628" style="fill:#29A9E1;" width="166.58" height="46.695"/>
	<rect x="306.886" y="312.628" style="fill:#29A9E1;" width="166.5" height="46.695"/>
</g>
<g>
	<path style="fill:#006CAC;" d="M266.632,471.926H245.44v2.071c0,5.298-1.08,10.349-3.067,14.986h27.323
		c-1.988-4.637-3.063-9.688-3.063-14.986V471.926z"/>
	<rect x="245.46" y="366.207" style="fill:#006CAC;" width="21.192" height="45.205"/>
	<path style="fill:#006CAC;" d="M245.44,167.743v138.014h21.192V167.743c0,0,83.706-26.331,92.231-147.212
		c-64.163,31.462-139.177,31.793-203.67,0.996l-2.071-0.996C161.65,141.412,245.44,167.743,245.44,167.743z"/>
</g>
<g>
	<polygon style="fill:#FCDB11;" points="205.198,411.404 245.44,411.404 245.44,366.199 205.198,366.199 205.198,359.327 
		38.618,359.327 38.618,418.359 205.198,418.359 	"/>
	<path style="fill:#FCDB11;" d="M245.44,471.926h-40.242v-6.955H38.618v20.201c0,14.819,12.006,26.825,26.825,26.825h141.91
		c15.731,0,29.227-9.441,35.023-23.017c1.988-4.637,3.067-9.688,3.067-14.986v-2.067H245.44z"/>
	<path style="fill:#FCDB11;" d="M306.87,471.926h-40.238v2.071c0,5.298,1.08,10.349,3.063,14.986
		c5.796,13.58,19.292,23.017,35.023,23.017h141.826c14.819,0,26.825-12.006,26.825-26.825v-20.201h-166.5V471.926z"/>
	<polygon style="fill:#FCDB11;" points="306.87,366.199 266.632,366.199 266.632,411.404 306.87,411.404 306.87,418.359 
		473.37,418.359 473.37,359.327 306.87,359.327 	"/>
	<path style="fill:#FCDB11;" d="M205.198,305.756h40.242V167.743c0,0-83.79-26.331-92.318-147.212
		c-0.578-6.537-0.829-13.409-0.829-20.531h-44.377v159.959c0,29.06-12.668,56.546-34.609,75.508
		c-11.014,9.441-19.707,21.029-25.586,33.944c-5.959,12.835-9.106,26.988-9.106,41.481v1.741h166.58v-6.876H205.198z"/>
	<path style="fill:#FCDB11;" d="M464.259,269.411c-5.88-12.915-14.572-24.507-25.499-33.944
		c-22.021-18.962-34.689-46.448-34.689-75.508V0h-44.377c0,7.123-0.251,13.994-0.829,20.531
		c-8.529,120.88-92.231,147.212-92.231,147.212v138.014h40.238v6.872h166.5v-1.741C473.37,296.403,470.223,282.245,464.259,269.411z
		"/>
</g>
<g>
</g>
<g>
</g>
<g>
</g>
<g>
</g>
<g>
</g>
<g>
</g>
<g>
</g>
<g>
</g>
<g>
</g>
<g>
</g>
<g>
</g>
<g>
</g>
<g>
</g>
<g>
</g>
<g>
</g>
</svg>
