<svg  viewBox="0 -31 512 512" xmlns="http://www.w3.org/2000/svg"><path d="m0 120h76v150h-76zm0 0" fill="#61729b"/><path d="m0 195h76v75h-76zm0 0" fill="#47568c"/><path d="m492.199219 30.898438v328.199218l-271-90v-148.199218zm0 0" fill="#f2f2fc"/><path d="m492.199219 195v164.097656l-271-90v-74.097656zm0 0" fill="#d8d8fc"/><path d="m482 0h30v390h-30zm0 0" fill="#ff641a"/><path d="m151.292969 282.054688-30.292969 2.945312h-30v165h57.289062l32.417969-162.054688zm0 0" fill="#47568c"/><path d="m482 195h30v195h-30zm0 0" fill="#f03800"/><path d="m61 90v210h180v-210zm0 0" fill="#ff641a"/><path d="m61 195h180v105h-180zm0 0" fill="#f03800"/><path d="m121 150h60v30h-60zm0 0" fill="#f03800"/><path d="m121 210h60v30h-60zm0 0" fill="#cd0000"/></svg>