<svg xmlns="http://www.w3.org/2000/svg" viewBox="0 0 127.48 65.21"><defs><style>.cls-1{fill:#f6e81d;}.cls-2{fill:#a3a2a2;}.cls-3{fill:#676766;}.cls-4{fill:#1d1d1b;}</style></defs><title>Fichier 31</title><g id="Calque_2" data-name="Calque 2"><g id="Calque_1-2" data-name="Calque 1"><polygon class="cls-1" points="127.48 28.27 127.14 28.17 126.53 27.99 29.2 0 29.2 0 29.2 0 29.19 0 29.19 0.01 7.49 9.53 7.47 9.52 0 35.51 0.48 35.65 0.96 35.78 103.28 65.21 103.29 65.21 103.86 64.83 103.9 64.84 103.92 64.79 119.96 54.32 119.94 54.29 119.99 54.3 127.48 28.27"/><polygon class="cls-2" points="30.05 2.83 9.94 11.12 108.52 39.47 124.17 29.9 30.05 2.83"/><polygon class="cls-3" points="123.88 30.08 108.52 39.47 101.92 62.41 117.28 53.05 123.88 30.08"/><rect class="cls-2" x="4.65" y="24.83" width="102.57" height="23.87" transform="translate(12.34 -14.03) rotate(16.04)"/><rect class="cls-4" x="58.76" y="-25.99" width="0.95" height="102.57" transform="translate(18.55 75.23) rotate(-73.96)"/><rect class="cls-4" x="93.29" y="50.47" width="23.87" height="0.95" transform="translate(27.18 137.98) rotate(-73.96)"/><rect class="cls-4" x="-5.68" y="22.23" width="24.57" height="0.96" transform="translate(-17.04 22.78) rotate(-73.96)"/><rect class="cls-4" x="8.9" y="6.54" width="22.28" height="0.96" transform="translate(-1.17 8.08) rotate(-22.18)"/><rect class="cls-4" x="52.16" y="-3.05" width="0.95" height="102.57" transform="translate(-8.27 85.49) rotate(-73.96)"/><rect class="cls-4" x="108.24" y="40.7" width="24.62" height="0.95" transform="translate(47.66 145.64) rotate(-73.96)"/><rect class="cls-4" x="100.17" y="57.13" width="18.53" height="0.95" transform="matrix(0.85, -0.52, 0.52, 0.85, -13.96, 65.89)"/><rect class="cls-4" x="106.86" y="34.27" width="18.49" height="0.95" transform="translate(-0.39 68.13) rotate(-32.65)"/><rect class="cls-4" x="76.52" y="-32.54" width="0.95" height="97.73" transform="translate(40.02 85.81) rotate(-73.96)"/></g></g></svg>