<svg viewBox="-29 0 512 512" xmlns="http://www.w3.org/2000/svg"><path d="m263.132812 318.125h-72.78125c-8.347656 0-15.117187 6.769531-15.117187 15.121094v163.636718c0 8.347657 6.769531 15.117188 15.117187 15.117188h72.78125c8.351563 0 15.117188-6.769531 15.117188-15.117188v-163.636718c0-8.351563-6.765625-15.121094-15.117188-15.121094zm0 0" fill="#d3695b"/><path d="m263.132812 318.125h-36.390624v193.875h36.390624c8.351563 0 15.117188-6.769531 15.117188-15.117188v-163.636718c0-8.351563-6.765625-15.121094-15.117188-15.121094zm0 0" fill="#a04202"/><path d="m438.367188 0h-423.25c-8.347657 0-15.117188 6.769531-15.117188 15.117188v318.128906c0 8.347656 6.769531 15.117187 15.117188 15.117187h423.25c8.351562 0 15.121093-6.769531 15.121093-15.117187v-318.128906c-.003906-8.347657-6.769531-15.117188-15.121093-15.117188zm0 0" fill="#ffa008"/><path d="m438.367188 0h-211.625v348.363281h211.625c8.351562 0 15.117187-6.769531 15.117187-15.117187v-318.128906c0-8.347657-6.765625-15.117188-15.117187-15.117188zm0 0" fill="#fc7e00"/><path d="m392.640625 47.28125h-331.796875c-8.347656 0-15.117188 6.769531-15.117188 15.117188v223.566406c0 8.347656 6.769532 15.117187 15.117188 15.117187h331.796875c8.347656 0 15.117187-6.769531 15.117187-15.117187v-223.566406c0-8.347657-6.769531-15.117188-15.117187-15.117188zm0 0" fill="#c7efec"/><path d="m392.640625 47.28125h-165.898437v253.800781h165.898437c8.347656 0 15.117187-6.769531 15.117187-15.117187v-223.566406c0-8.347657-6.769531-15.117188-15.117187-15.117188zm0 0" fill="#b1e5e5"/><path d="m236.921875 186.964844h-119.082031c-8.347656 0-15.117188-6.769532-15.117188-15.117188 0-8.351562 6.769532-15.121094 15.117188-15.121094h119.082031c8.347656 0 15.117187 6.769532 15.117187 15.121094 0 8.347656-6.769531 15.117188-15.117187 15.117188zm0 0" fill="#84b4bc"/><path d="m236.921875 156.726562h-10.179687v30.238282h10.179687c8.347656 0 15.117187-6.769532 15.117187-15.117188 0-8.351562-6.769531-15.121094-15.117187-15.121094zm0 0" fill="#63939e"/><path d="m323.433594 241.527344h-205.59375c-8.347656 0-15.117188-6.769532-15.117188-15.117188s6.769532-15.117187 15.117188-15.117187h205.59375c8.347656 0 15.117187 6.769531 15.117187 15.117187s-6.769531 15.117188-15.117187 15.117188zm0 0" fill="#84b4bc"/><path d="m323.433594 211.292969h-96.691406v30.234375h96.691406c8.347656 0 15.117187-6.769532 15.117187-15.117188s-6.769531-15.117187-15.117187-15.117187zm0 0" fill="#63939e"/></svg>