<svg xmlns="http://www.w3.org/2000/svg" viewBox="0 0 250.22 208.64"><defs><style>.cls-1{fill:#fff;}.cls-2{fill:#bfbebe;}.cls-3{fill:#e5e4e4;}</style></defs><title>Fichier 40</title><g id="Calque_2" data-name="Calque 2"><g id="Calque_1-2" data-name="Calque 1"><path class="cls-1" d="M106.17,199.05c8.9,3.2,17.75,3.63,28.58,3.63,34.73,0,62.88-18.7,62.88-41.76,0-10-5.3-19.16-14.11-26.34h0c6-5.62,9.62-12.47,9.62-19.89,0-19-23.13-34.3-51.66-34.3-.42,0-.83,0-1.25,0-8.81-9-24-15-41.42-15-20.14,0-37.43,8-45.13,19.5C22.81,90.33,0,108.92,0,131.09c0,12.2,6.94,23.29,18.28,31.72a27.57,27.57,0,0,0-.31,4.07c0,23.07,28.15,41.76,62.88,41.76C80.85,208.64,99.53,207.85,106.17,199.05Z"/><path class="cls-2" d="M69.23,101.51c5.68,2.4,11.32,2.71,18.22,2.71,22.14,0,40.08-14,40.08-31.19,0-7.47-3.37-14.31-9-19.68h0a22,22,0,0,0,6.13-14.86c0-14.15-14.74-25.63-32.92-25.63-.27,0-.53,0-.8,0C85.33,6.17,75.61,1.72,64.55,1.72c-12.84,0-23.87,6-28.77,14.57C16.1,20.29,1.56,34.18,1.56,50.74c0,9.11,4.42,17.4,11.65,23.7a23.64,23.64,0,0,0-.2,3c0,17.23,18,31.2,40.08,31.2C53.09,108.68,65,108.09,69.23,101.51Z"/><path class="cls-3" d="M102.49,121.08c5,1.58,10,1.79,16.13,1.79,19.6,0,35.49-9.22,35.49-20.59,0-4.93-3-9.45-8-13h0c3.41-2.77,5.43-6.15,5.43-9.81,0-9.35-13-16.92-29.15-16.92l-.71,0c-5-4.44-13.57-7.38-23.37-7.38-11.37,0-21.13,4-25.48,9.62-17.42,2.64-30.3,11.81-30.3,22.75,0,6,3.92,11.48,10.32,15.64a12.21,12.21,0,0,0-.18,2c0,11.38,15.89,20.6,35.5,20.6C88.2,125.82,98.74,125.43,102.49,121.08Z"/><path class="cls-1" d="M166.49,99.79c5.67,2.39,11.31,2.71,18.22,2.71,22.14,0,40.08-14,40.08-31.19,0-7.47-3.38-14.31-9-19.68h0a21.93,21.93,0,0,0,6.14-14.86c0-14.16-14.74-25.63-32.93-25.63-.27,0-.53,0-.8,0C182.59,4.45,172.87,0,161.8,0,149,0,137.94,6,133,14.57c-19.67,4-34.22,17.88-34.22,34.45,0,9.11,4.43,17.4,11.65,23.7a25.58,25.58,0,0,0-.19,3c0,17.23,17.94,31.2,40.08,31.2C150.35,107,162.26,106.37,166.49,99.79Z"/><path class="cls-2" d="M191.93,172.13c5.67,2.39,11.31,2.71,18.21,2.71,22.14,0,40.08-14,40.08-31.2,0-7.46-3.37-14.31-9-19.68h0a21.93,21.93,0,0,0,6.13-14.86c0-14.15-14.74-25.62-32.92-25.62-.27,0-.53,0-.8,0-5.62-6.72-15.34-11.17-26.4-11.17-12.84,0-23.87,6-28.77,14.56-19.68,4-34.22,17.89-34.22,34.46,0,9.11,4.42,17.4,11.65,23.7a23.52,23.52,0,0,0-.2,3c0,17.23,18,31.2,40.08,31.2C175.78,179.3,187.69,178.7,191.93,172.13Z"/></g></g></svg>