<svg xmlns="http://www.w3.org/2000/svg" viewBox="0 0 218.51 159.05"><defs><style>.cls-1{fill:#4f4e4e;}.cls-2{fill:#ebebe5;}.cls-3{fill:#575757;}.cls-4{fill:#68bbe3;}.cls-5{fill:#f1f2f2;}.cls-6{fill:#edecee;}.cls-7{fill:#6c6c6c;}.cls-8{fill:#e1e1da;}.cls-9{fill:#2c2c2d;}.cls-10{fill:#36a3cf;}.cls-11{fill:#2286ae;}.cls-12{fill:#e94f50;}.cls-13{fill:#d8403f;}.cls-14{fill:#61b1d7;}</style></defs><title>Fichier 33</title><g id="Calque_2" data-name="Calque 2"><g id="Calque_1-2" data-name="Calque 1"><path class="cls-1" d="M.1,120.07c0-1.9.23-3.8.13-5.68-.12-2.41,0-4.57,2.76-5.48,1.33-.43.93-1.6.93-2.53,0-4.19.1-8.39,0-12.58a3.14,3.14,0,0,1,1.94-3.23Q18.56,83.34,31.2,75.93c2.6-1.52,4.59-3.59,5.06-6.75a6.65,6.65,0,0,0,4.25-5.72c.43-3-.37-5.16-3.43-6.24a4.91,4.91,0,0,1-3.17-2.47c2-2.37,4.1-1.63,6.14,0C41.7,56,44.67,56,44.09,60c3.39-4.56,6.32-8.51,9.28-12.43.57-.75.89-1.85,2.11-1.9a99.14,99.14,0,0,0,11.92,7l7.18,4.16c8.88,5.4,17.85,10.64,27,15.56a44.63,44.63,0,0,0,7.18,4.17,12.24,12.24,0,0,0,4.1,2.31c-.09,1.28-1.06,2.09-1.67,3.08-2.51,4-5.6,7.62-7.76,11.85a1.72,1.72,0,0,0-1.2,1.8c-7.5,8.31-12.41,17.5-9.66,29.47L119,109.37c9.14-4.88,18.06-10.14,26.94-15.48L206.1,59.36a1.77,1.77,0,0,0,1.12-1.59c0-4.74,0-9.47,0-15.35-3.31,4.41-5,1.86-6.77-.25-.71-.82-1.55-1.52-2.33-2.28a40.54,40.54,0,0,0-5.28-5.68l-.52-.51c-8.35-5.36-17-10.22-25.68-15l-8-4.68c-2.07-1.27-4.2-2.46-6.2-3.83-.76-.52-2.29-.46-2-2.05a16.17,16.17,0,0,0,2.84-1.55c4.5-3.77,9-4.79,13.76-.44.13.11.38.09.57.14a42.69,42.69,0,0,0,7.19,4.19q12.85,7.91,26.12,15.09l8.06,4.65a57.49,57.49,0,0,0,9.59,5.39V69.16c-5.13,2.3-9.74,5.54-14.7,8.15-.57.3-1,.64-.77,1.37,1.21,3.72-.17,7.25-.76,10.83-2.89,5.88-6.84,10.69-13.21,13-3.35.46-6.61.41-9.52-1.65l-2.41-2.33a8.09,8.09,0,0,0-.78-2.17c-.6-.82.14-2.58-1.42-2.5A2.8,2.8,0,0,0,172.39,96a3.8,3.8,0,0,0-2.23.74q-27.66,16-55.33,31.94a2.37,2.37,0,0,0-1.37,2.8c.83,8.45-2.49,15.21-9.15,20.26-5.68,4.3-11,4-16.27-.55l-.83-.74a3.63,3.63,0,0,0-.74-2.49c-.56-.76.07-2.42-1.18-2.35-1.09.06-2.57.46-2.82,2.07a56.08,56.08,0,0,0-8.4,4.77,101.15,101.15,0,0,0-11.39,6.63H61.49c-7.35-4.83-15-9.08-22.76-13.25A33.85,33.85,0,0,0,32.24,142c-9.09-5.55-18.3-10.93-27.68-16C2.47,124.51-.59,123.68.1,120.07Zm9.17-11.29.55.66h0a1.27,1.27,0,0,0,1.33,1l.09.07a3.83,3.83,0,0,0,5.49.34C19,109,19,106.51,17.71,104l0-.09a2.26,2.26,0,0,0-1.14-2.32l-.06-.08-.5-.6,0,0-.56-.62h0c-.05-.38-.29-.5-.64-.49l-.07,0C13,97.84,10.82,97.58,8.87,99c-2.18,1.57-2.35,3.93-1.43,6.37a.27.27,0,0,0,.17.37,2.43,2.43,0,0,0,1.11,2.38l0,0,.51.64Zm36.59,12.51c-2,2.29-2.09,4.83-.35,7.86,1.64,2.87,4.55,4.53,7.08,4.09a3.48,3.48,0,0,0,1.81-.94c1.9-1.77,2.07-4.93.44-8.06s-4.66-4.92-7.14-4.28c-.76.19-1.6.31-1.81,1.29ZM105.25,79,98.17,74.9l-27-15.58L64,55.18c-2.37-1.42-4.83-2.73-7.09-4.32-1.68-1.19-2.47-.62-3.55.79C49.29,56.93,45.12,62.11,41,67.33c-4.67,5.92-4.67,5.92,2.43,9.24l7.17,4.15c8.89,5.39,17.86,10.64,27,15.56a42.78,42.78,0,0,0,7.18,4.17c1.94,1.18,4,2.26,5.79,3.58s2.72,1,4-.84C98.55,97,102.78,91,106.92,85,109.54,81.13,109.53,81.13,105.25,79ZM102,125.49c-6.17-.38-12.31,7.41-12.86,12.57-.15,1.41.68,2.88.47,4.41-.79,5.62,2.86,8.87,8.56,8.34,6.73-.63,13.36-10.73,12.33-17.46C109.72,128.15,106.72,125.51,102,125.49Zm98-42.72c1-5.66-4.51-10.76-10.73-8.8-6.69,2.11-12.28,11.2-10.8,18,1.21,5.59,5.28,7.68,10.77,6.11,2.52-.73,3.71-2.71,5.56-4C199,91.24,199.52,87.11,200,82.77ZM21.29,110.84c.24,1.1-.52,2.5.81,3.28q7.83,4.59,15.72,9.1c.55.31,1.07.43,1.43-.38.82-1.85-.25-5.19-2-6.18q-6.61-3.73-13.21-7.51c-.76-.42-1.49-1.53-2.3-1.05S21.5,109.91,21.29,110.84Z"/><path class="cls-2" d="M96.13,21.76c1.48,1.63-.49,2.07-1.11,2.69-8.4,8.52-16.88,17-25.33,25.42a8.47,8.47,0,0,0-2.29,2.72,99.14,99.14,0,0,1-11.92-7c1.3-2.51,4.05-3.06,6.19-4.33C72.27,35,83,28.93,93.68,22.8A20.47,20.47,0,0,1,96.13,21.76Z"/><path class="cls-3" d="M33.91,54.75a4.91,4.91,0,0,0,3.17,2.47c3.06,1.08,3.86,3.29,3.43,6.24a6.65,6.65,0,0,1-4.25,5.72c-2.41-.53-3.28-2-3.07-4.44.22-2.64,0-5.31.07-8C33.27,56.07,32.84,55.15,33.91,54.75Z"/><path class="cls-2" d="M166.63,18.68c8.69,4.8,17.33,9.66,25.68,15Q177,42.58,161.62,51.46c-12.54,7.27-25,14.65-37.67,21.74-3.6,2-6.83,4.86-11.08,5.59a12.24,12.24,0,0,1-4.1-2.31c.77-.9,1.5-1.84,2.33-2.68q9.39-9.55,18.81-19.08a2.91,2.91,0,0,0,3.3-.28,27.81,27.81,0,0,1,5.18-3c3.91-1.46,5.23-4.14,4.49-8.08,0-.2,0-.39-.08-.59a.89.89,0,0,0,.15-.54c4.81-5.6,10.3-10.54,15.48-15.78C161.09,23.81,163.5,20.86,166.63,18.68Z"/><path class="cls-2" d="M109.35,22.58c0-1.35,1.08-2.06,1.91-2.89,4-4,8-8,12-12C124,6.92,125,6.33,125,5l0,0c.5,0,.95-.08,1.14-.64L131,.88c2.36-1.43,4.47-1,6.7.53,2.74,1.9,5.69,3.52,8.57,5.2a7.92,7.92,0,0,0,4.12,1.51c-.29,1.59,1.24,1.53,2,2.05,2,1.37,4.13,2.56,6.2,3.83,0,1.39-1.15,2-2,2.86q-9.17,9.23-18.38,18.41c-.83.83-1.88,1.54-1.89,2.91L131.1,35.6A100.42,100.42,0,0,0,119.73,29Z"/><path class="cls-2" d="M74.58,56.75C79.93,50.51,86.05,45,91.82,39.19c1.61-1.63,2.78-4,5.47-4.27a1.72,1.72,0,0,0,1,1.35c3.51,1.94,7,3.92,10.5,5.88l11.34,6.56,2.52,1.8c-2.48,3.24-5.66,5.82-8.44,8.78-4.14,4.4-8.81,8.29-12.61,13C92.43,67.39,83.46,62.15,74.58,56.75Z"/><path class="cls-4" d="M77.62,96.28c-9.16-4.92-18.13-10.17-27-15.56,3.7-4.56,8.21-8.32,12.19-12.59,2.76-3,6-5.44,8.37-8.81l27,15.58c-.7,1.48-2,2.4-3.13,3.54C89.3,84.45,83,90,77.62,96.28Z"/><path class="cls-5" d="M198.11,39.89c.78.76,1.62,1.46,2.33,2.28,1.8,2.11,3.46,4.66,6.77.25,0,5.88,0,10.61,0,15.35a1.77,1.77,0,0,1-1.12,1.59L146,93.88c0-1.39,1-2.07,1.86-2.89Q159.42,79.38,171,67.8c.82-.82,1.95-1.47,1.95-2.86a63.59,63.59,0,0,1,6.81-4c3-1.36,4.64-3.31,4.21-6.71,4.6-3.07,7.86-7.57,11.88-11.26C196.77,42.08,198,41.39,198.11,39.89Z"/><path class="cls-5" d="M119,109.37,92.58,125c-2.75-12,2.16-21.16,9.66-29.47a31.25,31.25,0,0,1,0,5.64c-.86,4.83,1,7.72,5.51,9.52,3,1.2,5.39,0,5.45-3.35.06-2.87.14-5.73.21-8.6.62-.3,1.26-.58,1.86-.91L145.34,81c.16,1.44-1,2.1-1.8,2.92Q132.26,95.2,121,106.49C120.14,107.31,119,108,119,109.37Z"/><path class="cls-5" d="M112.87,78.79c4.25-.73,7.48-3.58,11.08-5.59,12.64-7.09,25.13-14.47,37.67-21.74Q177,42.57,192.31,33.7l.52.51c-2.71,3.18-5.36,6.42-9,8.56-10.71,5.54-20.89,12-31.43,17.84a2.18,2.18,0,0,0-1,2.28l.09,12.27v1.76c-2.49.21-3,3.48-5.53,3.6V64.74a4.9,4.9,0,0,0-1.11.27q-14.61,8.42-29.2,16.83a5.57,5.57,0,0,0-2.09,2.44c-1.73,3.23-3.54,6.42-5.31,9.63-1.54-1.24-3.15-.58-4.75-.19,2.16-4.23,5.25-7.85,7.76-11.85C111.81,80.88,112.78,80.07,112.87,78.79Z"/><path class="cls-6" d="M145.9,80.52c2.54-.12,3-3.39,5.53-3.6l21.52-12c0,1.39-1.13,2-1.95,2.86Q159.44,79.41,147.84,91c-.82.82-1.91,1.5-1.86,2.89-8.88,5.35-17.8,10.61-26.94,15.49-.05-1.42,1.1-2.06,1.92-2.88q11.27-11.33,22.58-22.62c.82-.82,2-1.48,1.8-2.92Z"/><path class="cls-4" d="M43.43,76.57c-7.1-3.32-7.1-3.32-2.43-9.24,4.12-5.22,8.29-10.4,12.34-15.68,1.08-1.41,1.87-2,3.55-.79,2.26,1.59,4.72,2.9,7.09,4.32-3.27,4.13-7.34,7.49-10.92,11.32C49.89,69.9,46.2,72.79,43.43,76.57Z"/><path class="cls-3" d="M102,125.49c4.7,0,7.7,2.66,8.5,7.86,1,6.73-5.6,16.83-12.33,17.46-5.7.53-9.35-2.72-8.56-8.34.21-1.53-.62-3-.47-4.41C89.71,132.9,95.85,125.11,102,125.49Zm-8.76,17.27c.56,3.33,2.78,4.78,5.85,3.82,4.1-1.27,7.69-6,7.93-10.26a7.2,7.2,0,0,0-1.72-4.95,4,4,0,0,0-6-.59C94,132.76,91.83,137.08,93.26,142.76Z"/><path class="cls-3" d="M200,82.77c-.48,4.34-1,8.47-5.2,11.37-1.85,1.26-3,3.24-5.56,4-5.49,1.57-9.56-.52-10.77-6.11-1.48-6.83,4.11-15.92,10.8-18C195.49,72,201,77.11,200,82.77Zm-11.57-4c-3.07,1.49-4.66,4.19-5.92,7.17-1.18,3.55-.57,6.29,1.85,8,2.7,1.89,5.1.78,7.44-.8,3.44-2.34,4.67-5.89,4.87-9.75a5.69,5.69,0,0,0-3.35-5.26A3.74,3.74,0,0,0,188.43,78.81Z"/><path class="cls-4" d="M84.8,100.45C90.54,93.86,97.08,88,103.12,81.74c.8-.84,1.94-1.45,2.13-2.77,4.28,2.16,4.29,2.16,1.67,6C102.78,91,98.55,97,94.54,103.19c-1.23,1.88-2.19,2.1-4,.84S86.74,101.63,84.8,100.45Z"/><path class="cls-3" d="M103.44,93.72c1.6-.39,3.21-1,4.74.19,1.62,1.75,5,1.61,5.23,4.82-.07,2.87-.15,5.73-.21,8.6-.06,3.31-2.48,4.55-5.45,3.35-4.49-1.8-6.37-4.69-5.51-9.52a31.25,31.25,0,0,0,0-5.64A1.72,1.72,0,0,1,103.44,93.72Z"/><path class="cls-6" d="M183.79,42.77c3.68-2.14,6.33-5.38,9-8.56a40.54,40.54,0,0,1,5.28,5.68c-.09,1.5-1.34,2.19-2.26,3-4,3.69-7.28,8.19-11.88,11.26L183.73,44Z"/><path class="cls-7" d="M21.29,110.84c.21-.93-.46-2.21.46-2.74s1.54.63,2.3,1.05q6.6,3.76,13.21,7.51c1.74,1,2.81,4.33,2,6.18-.36.81-.88.69-1.43.38q-7.87-4.53-15.72-9.1C20.77,113.34,21.53,111.94,21.29,110.84Z"/><path class="cls-8" d="M45.89,121.25c.21-1,1-1.1,1.81-1.29,2.48-.64,5.52,1.2,7.14,4.28s1.46,6.29-.44,8.06a3.48,3.48,0,0,1-1.81.94c-2.53.44-5.44-1.22-7.08-4.09-1.74-3-1.62-5.57.35-7.87a19.73,19.73,0,0,0-.47,2.6c0,1-.64,2.45.42,3s1.69-.81,2.25-1.51c1-1.24,3.51-2.07,2.73-3.74C49.85,119.64,47.57,121.42,45.89,121.25Z"/><path class="cls-5" d="M7.61,105.72a.27.27,0,0,1-.17-.37c.45-5.6,1.69-6.56,7.24-5.63l.07,0,.64.49h0c.19.2.37.41.56.62l0,0,.5.6.06.08a2,2,0,0,0,1.14,2.32l0,.09c0,6-.93,6.9-6.47,6.49l-.09-.07c-.06-.84-.5-1.17-1.33-1h0a.59.59,0,0,0-.55-.66h0l-.51-.64,0,0A2.05,2.05,0,0,0,7.61,105.72Z"/><path class="cls-8" d="M11.24,110.49c5.54.41,6.44-.49,6.47-6.49,1.28,2.51,1.25,5-1,6.83A3.83,3.83,0,0,1,11.24,110.49Z"/><path class="cls-9" d="M87.21,150.42l-4.74-2.77c.25-1.61,1.73-2,2.82-2.07,1.25-.07.62,1.59,1.18,2.35A3.63,3.63,0,0,1,87.21,150.42Z"/><path class="cls-9" d="M177.14,98.58,172.39,96a2.8,2.8,0,0,1,2.55-2.06c1.56-.08.82,1.68,1.42,2.5A8.09,8.09,0,0,1,177.14,98.58Z"/><path class="cls-8" d="M14.68,99.72c-5.55-.93-6.79,0-7.24,5.63-.92-2.44-.75-4.8,1.43-6.37C10.82,97.58,13,97.84,14.68,99.72Z"/><path class="cls-8" d="M17.67,103.91a2,2,0,0,1-1.14-2.32A2.26,2.26,0,0,1,17.67,103.91Z"/><path class="cls-8" d="M7.61,105.72a2.05,2.05,0,0,1,1.12,2.38A2.42,2.42,0,0,1,7.61,105.72Z"/><path class="cls-8" d="M9.82,109.45c.83-.2,1.27.13,1.33,1A1.27,1.27,0,0,1,9.82,109.45Z"/><path class="cls-8" d="M15.39,100.26l-.64-.49C15.1,99.76,15.34,99.88,15.39,100.26Z"/><path class="cls-8" d="M16,100.89c-.19-.21-.37-.42-.56-.62C15.58,100.47,15.76,100.68,16,100.89Z"/><path class="cls-8" d="M16.47,101.51l-.5-.6Z"/><path class="cls-8" d="M8.76,108.14l.51.64Z"/><path class="cls-8" d="M9.27,108.78a.59.59,0,0,1,.55.66Z"/><path class="cls-8" d="M126.18,4.37c-.19.56-.64.65-1.14.64C125.26,4.51,125.72,4.44,126.18,4.37Z"/><path class="cls-10" d="M109.35,22.58,119.73,29l-10.88,6.58c-3.75-2-7.7-3.76-10.86-6.74C101.62,26.5,105.2,24,109.35,22.58Z"/><path class="cls-11" d="M98,28.87c3.16,3,7.11,4.7,10.86,6.74a1.85,1.85,0,0,0,.06.57l-.13,6c-3.5-2-7-3.94-10.5-5.88a1.72,1.72,0,0,1-1-1.35C97.8,32.94,96.75,30.77,98,28.87Z"/><path class="cls-12" d="M136.34,38.18,143,42.27a.89.89,0,0,1-.15.54c-3.43.84-6.09,3.17-9.09,4.83a3.88,3.88,0,0,1-4.07.21c-3.23-1.52-6-3.93-9.37-5.1a2.05,2.05,0,0,1-.1-.55l10.93-6.6Z"/><path class="cls-13" d="M120.27,42.75c3.4,1.17,6.14,3.58,9.37,5.1a3.88,3.88,0,0,0,4.07-.21c3-1.66,5.66-4,9.09-4.83,0,.2,0,.39.08.59.74,3.94-.58,6.62-4.49,8.08a27.81,27.81,0,0,0-5.18,3,2.91,2.91,0,0,1-3.3.28,43.11,43.11,0,0,0-7.27-4.21l-2.52-1.8Z"/><path class="cls-3" d="M131.1,35.6l-10.93,6.6c-4-1.64-7.16-4.67-11.26-6a1.85,1.85,0,0,1-.06-.57L119.73,29A100.42,100.42,0,0,1,131.1,35.6Z"/><path class="cls-7" d="M108.91,36.18c4.1,1.35,7.31,4.38,11.26,6a2.05,2.05,0,0,0,.1.55l-.15,6-11.34-6.56Q108.84,39.16,108.91,36.18Z"/><path class="cls-14" d="M183.73,44,184,54.18c.43,3.4-1.17,5.35-4.21,6.71a63.59,63.59,0,0,0-6.81,4l-21.52,12V75.16c1.26,0,1.87-1,2.62-1.8,4.52-4.49,9-9,13.52-13.49Q175.63,51.91,183.73,44Z"/><path class="cls-4" d="M113.41,98.73c-.26-3.21-3.61-3.07-5.23-4.82,1.78-3.21,3.59-6.4,5.32-9.63a5.57,5.57,0,0,1,2.09-2.44q14.61-8.4,29.2-16.83a4.9,4.9,0,0,1,1.11-.27V80.52l-.56.43L115.27,97.82C114.67,98.15,114,98.43,113.41,98.73Z"/><path class="cls-4" d="M183.73,44q-8.08,7.93-16.16,15.88c-4.52,4.48-9,9-13.52,13.49-.75.75-1.36,1.76-2.62,1.8l-.09-12.27a2.18,2.18,0,0,1,1-2.28c10.54-5.84,20.72-12.3,31.43-17.84Z"/><path class="cls-9" d="M93.26,142.76c-1.43-5.68.75-10,6-12,3.28.37,4.17,1.37,4.2,4.49A8.82,8.82,0,0,1,99.2,143C97.34,144.24,95.16,144.8,93.26,142.76Z"/><path class="cls-7" d="M93.26,142.76c1.9,2,4.08,1.48,5.94.24a8.82,8.82,0,0,0,4.3-7.72c0-3.12-.92-4.12-4.2-4.49a4,4,0,0,1,6,.58,7.2,7.2,0,0,1,1.72,4.95c-.24,4.28-3.83,9-7.93,10.26C96,147.54,93.82,146.09,93.26,142.76Z"/><path class="cls-9" d="M182.51,86c1.26-3,2.85-5.68,5.92-7.17,1.77-.13,3.37.16,4.35,1.88,2.16,3.81-1.67,11-6,11.26C183.66,92.15,182.58,90.62,182.51,86Z"/><path class="cls-7" d="M182.51,86c.07,4.64,1.15,6.17,4.23,6,4.37-.29,8.2-7.45,6-11.26-1-1.72-2.58-2-4.35-1.88a3.74,3.74,0,0,1,4.89-.66,5.69,5.69,0,0,1,3.35,5.26c-.2,3.86-1.43,7.41-4.87,9.75-2.34,1.58-4.74,2.69-7.44.8C181.94,92.27,181.33,89.53,182.51,86Z"/><path class="cls-5" d="M45.89,121.25c1.68.17,4-1.61,4.9.39.78,1.67-1.74,2.5-2.73,3.74-.56.7-1.23,2.05-2.25,1.51s-.46-2-.42-3a19.73,19.73,0,0,1,.47-2.6Z"/></g></g></svg>